<svg width="75" height="88" viewBox="0 0 75 88" fill="none" xmlns="http://www.w3.org/2000/svg">
<path d="M38.042 7.68524C40.5128 8.45429 42.9672 9.2397 45.438 9.99238C53.6193 12.4959 64.8278 14.9666 73.0091 17.4701C74.449 17.9119 74.7435 18.321 74.7435 19.8591C74.7435 31.4602 74.7108 43.045 74.7599 54.6462C74.7763 59.0641 71.4383 64.8401 68.9348 68.3581C65.2368 73.5615 59.2317 77.1613 53.9629 80.5811C49.1032 83.7391 45.1271 85.3753 39.6292 87.1916C39.0729 87.3716 38.3529 87.3879 37.7966 87.1916C28.2735 83.8372 21.5975 81.0719 14.3325 73.9214C11.1418 70.7798 8.45828 67.2127 7.14927 62.7948C6.85474 61.813 6.69111 60.7986 6.46204 59.8168C6.46204 47.0866 6.46204 31.5421 6.46204 18.8119C6.78929 18.0265 7.42743 17.6828 8.19648 17.4538C16.3778 14.983 21.5484 12.4959 29.7298 9.99238C32.2005 9.2397 34.6713 8.45429 37.1257 7.68524C37.4366 7.68524 37.7311 7.68524 38.042 7.68524Z" fill="#FBAA29"/>
<path d="M37.0613 0.683049C39.712 1.50118 42.3464 2.33568 44.9972 3.12109C53.7512 5.75549 62.5216 8.38988 71.292 11.0079C72.8301 11.4661 73.141 11.9079 73.141 13.5278C73.141 25.7834 73.0919 38.0227 73.1574 50.2784C73.1737 54.9418 71.6356 58.9997 68.9521 62.714C64.9924 68.2119 59.8054 72.368 54.1603 76.0006C48.9406 79.3385 43.4427 82.1202 37.5521 84.0346C36.9631 84.231 36.1777 84.2474 35.5886 84.0346C25.3783 80.5003 16.1988 75.2315 8.42654 67.6719C5.00674 64.3667 2.14327 60.6033 0.736077 55.9399C0.425186 54.909 0.228834 53.8455 -0.000244141 52.7819C-0.000244141 39.3317 -0.000244141 25.8816 -0.000244141 12.4315C0.343372 11.597 1.03061 11.237 1.84874 10.9916C10.6191 8.37352 19.3895 5.73912 28.1436 3.10473C30.7943 2.30296 33.4287 1.46846 36.0795 0.666687C36.4067 0.68305 36.734 0.683049 37.0613 0.683049ZM3.46865 33.5066C3.46865 39.2172 3.46865 44.9442 3.46865 50.6547C3.46865 52.5855 3.77954 54.4509 4.51586 56.2344C6.33212 60.6196 9.37558 64.0885 12.8608 67.1647C19.635 73.1207 27.3582 77.5059 35.8668 80.4839C36.2758 80.6312 36.8322 80.6312 37.2576 80.4839C42.87 78.5859 48.1224 75.9187 53.064 72.6626C58.0709 69.3573 62.6852 65.6102 66.1705 60.6687C68.2649 57.7071 69.6721 54.4836 69.6721 50.7529C69.6557 38.8245 69.6557 26.9125 69.6885 14.984C69.6885 14.3459 69.4921 14.1005 68.9031 13.9205C58.3655 10.7788 47.8279 7.60447 37.2903 4.46283C36.8485 4.33193 36.3086 4.33193 35.8831 4.46283C25.3292 7.60447 14.7916 10.7788 4.25406 13.9205C3.59955 14.1168 3.45228 14.4277 3.45228 15.0659C3.46865 21.2019 3.46865 27.3542 3.46865 33.5066Z" fill="#161616"/>
<path d="M36.6023 59.9155C26.1465 59.9973 17.5561 51.4396 17.4252 40.853C17.3107 30.3645 25.9011 21.6595 36.4877 21.5941C47.009 21.5286 55.6321 30.0863 55.6975 40.7057C55.7794 51.2105 47.2053 59.8337 36.6023 59.9155ZM36.5532 25.063C27.9137 25.0957 20.8614 32.1807 20.8941 40.7875C20.9268 49.427 28.0119 56.4793 36.635 56.4139C45.3072 56.3484 52.3105 49.2797 52.245 40.673C52.1632 32.0498 45.1109 25.0302 36.5532 25.063Z" fill="#161616"/>
<path d="M33.1826 45.3863C33.4116 45.0754 33.5589 44.7972 33.7552 44.5845C37.6005 40.7229 41.4457 36.8777 45.2909 33.0325C46.4036 31.9198 47.369 31.7562 48.2035 32.5416C49.038 33.3433 48.8907 34.3742 47.7453 35.5032C43.4256 39.8393 39.0895 44.1591 34.7697 48.4952C33.4934 49.7715 32.6589 49.7715 31.3827 48.4952C29.37 46.4826 27.3411 44.4536 25.3285 42.4246C25.083 42.1792 24.8376 41.9174 24.6576 41.6229C24.2322 40.952 24.3631 40.0684 24.903 39.5284C25.4594 38.9721 26.3429 38.8739 26.9975 39.2994C27.292 39.4957 27.5538 39.7412 27.7992 39.9866C29.5337 41.721 31.2681 43.4555 33.1826 45.3863Z" fill="#161616"/>
</svg>
