<svg width="16" height="16" viewBox="0 0 16 16" fill="none" xmlns="http://www.w3.org/2000/svg">
<path d="M12.6667 4.66665C12.6667 3.93331 12.0667 3.33331 11.3334 3.33331H9.33337V4.66665H11.3334V6.43331L9.01337 9.33331H6.66671V5.99998H4.00004C2.52671 5.99998 1.33337 7.19331 1.33337 8.66665V10.6666H2.66671C2.66671 11.7733 3.56004 12.6666 4.66671 12.6666C5.77337 12.6666 6.66671 11.7733 6.66671 10.6666H9.65337L12.6667 6.89998V4.66665ZM2.66671 9.33331V8.66665C2.66671 7.93331 3.26671 7.33331 4.00004 7.33331H5.33337V9.33331H2.66671ZM4.66671 11.3333C4.30004 11.3333 4.00004 11.0333 4.00004 10.6666H5.33337C5.33337 11.0333 5.03337 11.3333 4.66671 11.3333Z" fill="#2B1E08"/>
<path d="M6.66671 3.99998H3.33337V5.33331H6.66671V3.99998Z" fill="#2B1E08"/>
<path d="M12.6667 8.66665C11.56 8.66665 10.6667 9.55998 10.6667 10.6666C10.6667 11.7733 11.56 12.6666 12.6667 12.6666C13.7734 12.6666 14.6667 11.7733 14.6667 10.6666C14.6667 9.55998 13.7734 8.66665 12.6667 8.66665ZM12.6667 11.3333C12.3 11.3333 12 11.0333 12 10.6666C12 10.3 12.3 9.99998 12.6667 9.99998C13.0334 9.99998 13.3334 10.3 13.3334 10.6666C13.3334 11.0333 13.0334 11.3333 12.6667 11.3333Z" fill="#2B1E08"/>
</svg>
