<svg width="24" height="25" viewBox="0 0 24 25" fill="none" xmlns="http://www.w3.org/2000/svg">
<path d="M4.90173 7.1535L13.1424 3.04828C13.494 2.87439 13.906 2.87439 14.2538 3.05206L21.126 6.526C21.5419 6.73769 21.8065 7.16484 21.8065 7.63358V17.133C21.8065 17.598 21.5494 18.0214 21.1374 18.2331L13.1538 22.361C12.8135 22.5386 12.4091 22.5462 12.0613 22.3836L4.93197 19.0798C4.49347 18.8757 4.21375 18.4372 4.21375 17.9533L4.21753 8.26108C4.21375 7.79234 4.48213 7.36519 4.90173 7.1535Z" fill="#FBAA29"/>
<path d="M21.1484 6.92275C21.1484 10.4269 21.1484 13.9273 21.1484 17.4315C21.0501 17.5033 20.9594 17.5941 20.8498 17.647C18.0903 18.9852 15.327 20.3158 12.5637 21.6501C12.4352 21.7106 12.3142 21.7824 12.1895 21.8505C12.1139 21.8505 12.0383 21.8505 11.9627 21.8505C11.906 21.8165 11.8531 21.7711 11.7926 21.7446C8.96127 20.38 6.12995 19.0154 3.29863 17.647C3.18901 17.5941 3.09828 17.5033 3 17.4315C3 13.9273 3 10.4269 3 6.92275C3.10584 6.84715 3.20035 6.75643 3.31375 6.69972C6.14507 5.33132 8.97639 3.96669 11.8077 2.59828C11.8606 2.57182 11.9098 2.53402 11.9589 2.5C12.0345 2.5 12.1101 2.5 12.1857 2.5C12.2311 2.53024 12.2764 2.56426 12.3218 2.58694C15.1569 3.95535 17.9958 5.32754 20.8309 6.69972C20.9481 6.75265 21.0426 6.84715 21.1484 6.92275ZM11.7888 21.1171C11.7888 20.9924 11.7888 20.913 11.7888 20.8336C11.7888 17.8284 11.785 14.8232 11.7964 11.818C11.7964 11.5459 11.7472 11.3644 11.4637 11.2888C11.3427 11.2548 11.2369 11.183 11.1235 11.1263C10.908 11.0204 10.8324 10.8768 10.908 10.7142C10.9836 10.5517 11.1462 10.5139 11.3616 10.6122C11.5998 10.7218 11.8417 10.9184 12.0799 10.9184C12.318 10.9184 12.5599 10.7218 12.7981 10.6084C13.2139 10.4118 13.6259 10.2077 14.0418 10.0111C14.2648 9.90906 14.4803 10.03 14.4765 10.2493C14.4727 10.3929 14.3858 10.4723 14.261 10.5328C13.6864 10.8087 13.1194 11.0885 12.5448 11.3568C12.4087 11.4211 12.3558 11.4967 12.3558 11.6517C12.3596 14.7325 12.3596 17.8133 12.3596 20.8941C12.3596 20.9584 12.3672 21.0264 12.3709 21.1096C12.4465 21.0756 12.4957 21.0529 12.5486 21.0302C15.1758 19.7601 17.8068 18.4937 20.4377 17.2274C20.5625 17.1669 20.5889 17.0913 20.5889 16.9666C20.5852 13.8744 20.5852 10.7785 20.5852 7.68634C20.5852 7.62586 20.5852 7.56537 20.5852 7.48599C20.5209 7.51623 20.4793 7.53135 20.4415 7.55025C19.6666 7.92449 18.8879 8.29872 18.113 8.66917C18.0071 8.71831 17.9693 8.7788 17.9693 8.89976C17.9731 9.94686 17.9693 10.9902 17.9769 12.0373C17.9769 12.2565 17.8975 12.385 17.7009 12.4758C17.0696 12.7706 16.4421 13.0806 15.8146 13.383C15.4593 13.5531 15.2892 13.451 15.2892 13.0579C15.2892 12.0259 15.2854 10.9902 15.293 9.9582C15.293 9.83723 15.2665 9.76541 15.1493 9.70871C12.3936 8.38188 9.64169 7.05128 6.88597 5.72823C6.82171 5.69799 6.71209 5.69799 6.64405 5.73201C6.05813 6.00796 5.47599 6.29147 4.89385 6.57498C4.59143 6.72241 4.28902 6.86605 3.95637 7.02482C4.03954 7.0664 4.09624 7.09664 4.14916 7.1231C5.91448 7.97741 7.68358 8.83172 9.4489 9.68225C9.65681 9.78431 9.8685 9.8826 10.0764 9.98844C10.2314 10.0716 10.2805 10.2304 10.2087 10.3702C10.1407 10.5025 9.99324 10.5555 9.83448 10.495C9.77399 10.4723 9.72107 10.4421 9.66437 10.4156C7.70248 9.47056 5.74437 8.52175 3.78249 7.57672C3.71822 7.54647 3.65396 7.52001 3.57458 7.48221C3.57458 7.57672 3.57458 7.64098 3.57458 7.70524C3.57458 10.786 3.57458 13.8669 3.5708 16.9477C3.5708 17.1026 3.62372 17.1782 3.75603 17.2425C5.99386 18.3198 8.2317 19.401 10.4695 20.4821C10.8967 20.6862 11.3238 20.8903 11.7888 21.1171ZM9.73997 4.22752C9.8307 4.27666 9.89496 4.31068 9.95922 4.3447C12.5448 5.59593 15.1342 6.84337 17.7198 8.09459C17.8219 8.14373 17.8975 8.14373 17.9996 8.09459C18.6838 7.75816 19.368 7.43307 20.0559 7.10042C20.0975 7.07774 20.1391 7.05128 20.1883 7.02104C20.1618 7.00214 20.1467 6.99079 20.1278 6.98323C17.4779 5.70177 14.828 4.42409 12.1782 3.1464C12.1177 3.11616 12.0194 3.1275 11.9551 3.15774C11.3805 3.42613 10.8097 3.70586 10.2389 3.98181C10.0764 4.06119 9.92142 4.14058 9.73997 4.22752ZM17.1982 8.48017C17.1037 8.43103 17.0432 8.397 16.9827 8.36676C16.3892 8.07947 15.792 7.79218 15.1985 7.50489C13.2177 6.54852 11.2331 5.58837 9.25234 4.63577C9.18429 4.60175 9.08223 4.56017 9.02553 4.58663C8.49631 4.83234 7.97843 5.08939 7.42653 5.35778C7.91795 5.59593 8.38291 5.82274 8.84786 6.04576C11.029 7.09664 13.2101 8.1513 15.3913 9.19839C15.4631 9.23241 15.5689 9.25887 15.6294 9.22863C16.1435 8.99426 16.6538 8.74478 17.1982 8.48017ZM17.3985 9.02451C17.3267 9.05475 17.2813 9.06987 17.236 9.08877C16.8239 9.28911 16.4119 9.48946 15.9961 9.68225C15.8827 9.73517 15.8411 9.79565 15.8411 9.92418C15.8487 10.7936 15.8449 11.663 15.8449 12.5325C15.8449 12.5854 15.8524 12.6421 15.8562 12.7215C16.3628 12.4795 16.8466 12.2452 17.3305 12.007C17.3683 11.9881 17.3947 11.9163 17.3947 11.8709C17.4023 10.9335 17.3985 9.996 17.3985 9.02451Z" fill="#161616"/>
<path d="M4.53835 14.0597C4.56859 14.071 4.63285 14.0862 4.68577 14.1126C5.46826 14.4868 6.24696 14.8649 7.02945 15.2429C7.09371 15.2731 7.18822 15.3223 7.19956 15.379C7.22224 15.4848 7.2298 15.6209 7.18066 15.7078C7.09749 15.8439 6.95007 15.8326 6.8102 15.7645C6.26586 15.4999 5.72531 15.2391 5.18097 14.9783C4.91636 14.8497 4.64797 14.725 4.38336 14.5927C4.25106 14.5246 4.18679 14.4112 4.22837 14.2638C4.26618 14.1315 4.36446 14.0597 4.53835 14.0597Z" fill="#161616"/>
<path d="M6.06962 16.2484C6.06206 16.5017 5.87683 16.6453 5.69538 16.5621C5.24555 16.358 4.79949 16.1425 4.35722 15.9195C4.21735 15.8477 4.17577 15.7154 4.24381 15.5642C4.30808 15.4243 4.45928 15.3563 4.60671 15.4243C5.0452 15.6285 5.47992 15.8364 5.91085 16.0556C5.99023 16.101 6.0356 16.2106 6.06962 16.2484Z" fill="#161616"/>
</svg>
