<svg width="24" height="24" viewBox="0 0 24 24" fill="none" xmlns="http://www.w3.org/2000/svg">
<path d="M5.26115 11.8244C5.11487 11.9087 4.94481 11.9015 4.83988 11.811C4.74942 11.733 4.73701 11.6177 4.73598 11.6074C4.72874 11.535 4.7489 11.4606 4.79646 11.3872C4.9722 11.1158 5.22755 10.9488 5.55009 10.9462C6.6976 10.9364 7.84511 10.9416 8.99314 10.9426C9.18026 10.9426 9.34876 11.0114 9.49608 11.1194C9.59791 11.1938 9.62892 11.1644 9.66562 11.0594C9.8331 10.5818 10.0631 10.1378 10.3846 9.74239C10.7015 9.35265 11.0876 9.06215 11.5652 8.90191C11.68 8.86366 11.7006 8.84247 11.603 8.74633C10.8684 8.02474 10.6307 7.15429 10.9424 6.17994C11.2597 5.18905 11.9767 4.6065 13.0048 4.45505C14.4495 4.24209 15.8162 5.44026 15.8027 6.87671C15.8012 7.03282 15.7593 7.15894 15.6167 7.22975C15.5272 7.27421 15.519 7.34295 15.5334 7.42307C15.5681 7.61484 15.6234 7.79886 15.7355 7.96168C15.965 8.29559 15.9387 8.59901 15.6358 8.87038C15.5298 8.96549 15.4678 9.06991 15.4202 9.2012C15.2988 9.53563 15.0703 9.77444 14.7188 9.86334C14.5493 9.90624 14.5565 9.96775 14.6475 10.0815C14.756 10.2174 14.8594 10.3575 14.9643 10.4965C15.2615 10.8909 15.6616 11.0021 16.1304 10.9188C16.5812 10.8392 16.9926 10.907 17.3281 11.2419C17.4289 11.3422 17.4439 11.2672 17.4832 11.1949C17.7721 10.6614 18.2079 10.3492 18.825 10.3249C19.0881 10.3146 19.2044 10.4335 19.2055 10.6971C19.2075 11.4771 19.207 12.2576 19.206 13.0376C19.206 13.3462 19.0912 13.4532 18.7795 13.4423C18.7346 13.4408 18.6896 13.4366 18.6446 13.431C18.5573 13.4201 18.4405 13.3421 18.3919 13.3999C18.3283 13.4754 18.427 13.5752 18.4632 13.6599C18.747 14.3304 19.039 14.9982 19.3181 15.6707C19.3828 15.8263 19.4598 15.8971 19.6417 15.8997C20.8812 15.9178 21.9528 17.0317 21.9983 18.2732C22.0458 19.5634 21.0983 20.6432 19.9364 20.8417C18.625 21.0655 17.3658 20.239 17.0728 18.9235C17.0319 18.741 16.9559 18.7033 16.7885 18.7038C15.3959 18.709 14.0029 18.709 12.6104 18.7038C12.4501 18.7033 12.3778 18.741 12.338 18.9142C12.0707 20.0726 11.0571 20.8743 9.89047 20.867C8.7259 20.8598 7.72468 20.0447 7.46726 18.8827C7.43676 18.7457 7.38042 18.7012 7.2481 18.7049C7.00309 18.7116 6.75808 18.7105 6.51307 18.7049C6.30476 18.6997 6.18587 18.5855 6.18122 18.3813C6.15848 17.4323 6.38798 16.5427 6.82631 15.7053C6.89402 15.5756 6.9912 15.4613 7.1013 15.3021C6.61076 15.3021 6.16106 15.3021 5.71085 15.3021C5.14071 15.3016 4.80163 15.0545 4.64759 14.5102C4.61554 14.3965 4.5623 14.3712 4.45841 14.3722C4.12966 14.3758 3.80091 14.3748 3.47217 14.3727C3.21889 14.3712 3.08191 14.2533 3.08501 14.0445C3.08811 13.8445 3.22251 13.7297 3.4639 13.7277C3.79264 13.7256 4.12139 13.7225 4.45014 13.7287C4.58091 13.7313 4.6357 13.6904 4.6326 13.5524C4.62226 13.0547 4.68377 13.1441 4.22942 13.1348C4.14568 13.1332 4.06091 13.1394 3.97821 13.1291C3.90791 13.1203 3.84795 13.0919 3.80246 13.0495C3.73423 12.9864 3.70012 12.8929 3.70374 12.8091C3.70994 12.6696 3.82159 12.5403 3.98286 12.4954C4.41964 12.4907 4.85693 12.4861 5.29371 12.4814C5.28234 12.2628 5.27097 12.0436 5.2596 11.825L5.26115 11.8244Z" fill="#666666"/>
<path d="M6.01634 14.3707C5.5258 14.3707 5.0761 14.3707 4.62589 14.3707C4.05575 14.3702 3.71666 14.1231 3.56263 13.5788C3.53058 13.4651 3.47734 13.4397 3.37345 13.4408C3.0447 13.4444 2.71595 13.4434 2.38721 13.4413C2.13393 13.4397 1.99695 13.3219 2.00005 13.1131C2.00315 12.913 2.13755 12.7983 2.37894 12.7962C2.70768 12.7941 3.03643 12.791 3.36518 12.7972C3.49595 12.7998 3.55074 12.759 3.54764 12.621C3.5373 12.1232 3.59881 12.2126 3.14446 12.2033C3.06072 12.2018 2.97595 12.208 2.89325 12.1976C2.72681 12.177 2.61774 12.0452 2.61878 11.8777C2.61981 11.7102 2.73043 11.5665 2.8979 11.5639C3.43909 11.5551 3.9808 11.5551 4.52251 11.5629C4.69101 11.5655 4.80473 11.7045 4.80887 11.8704C4.81352 12.0452 4.69825 12.178 4.52251 12.2002C4.18652 12.2426 4.19273 12.2431 4.18911 12.5946C4.18756 12.7419 4.22632 12.8102 4.38501 12.7978C4.52612 12.7864 4.66879 12.7905 4.81042 12.7983C5.00012 12.8086 5.12211 12.9435 5.11849 13.1255C5.11539 13.2991 4.9965 13.4273 4.81507 13.4377C4.66103 13.4465 4.50545 13.4403 4.3509 13.4423C4.31316 13.4423 4.26923 13.4377 4.24855 13.4795C4.22374 13.5286 4.25579 13.5674 4.28525 13.6C4.36899 13.6925 4.48115 13.7225 4.60004 13.7225C5.65089 13.7235 6.70174 13.7256 7.75259 13.7215C8.04205 13.7204 8.18368 13.5793 8.18575 13.2914C8.19144 12.5564 8.19092 11.8213 8.18575 11.0863C8.18368 10.8056 8.04567 10.6609 7.77017 10.6588C7.17574 10.6547 7.30082 10.5854 7.28739 11.107C7.28377 11.2553 7.28997 11.4037 7.28532 11.552C7.27808 11.7795 7.16592 11.8922 6.93176 11.8937C6.43554 11.8978 5.9388 11.8978 5.44258 11.8937C5.21256 11.8916 5.09936 11.7759 5.09471 11.5469C5.09006 11.3215 5.08592 11.0951 5.09574 10.8702C5.10246 10.7162 5.05956 10.6511 4.89209 10.6542C4.62485 10.6588 4.37002 10.649 4.17464 10.894C4.07746 11.016 3.86295 10.9912 3.75336 10.8806C3.62828 10.7534 3.61535 10.6025 3.70995 10.4562C3.88569 10.1848 4.14104 10.0179 4.46358 10.0153C5.61109 10.0055 6.7586 10.0107 7.90663 10.0117C8.09374 10.0117 8.26225 10.0804 8.40957 10.1885C8.5114 10.2629 8.54241 10.2334 8.57911 10.1285C8.74658 9.65089 8.9766 9.20688 9.29811 8.81145C9.61497 8.42171 10.0011 8.13122 10.4787 7.97098C10.5935 7.93273 10.6141 7.91153 10.5164 7.81539C9.78193 7.0938 9.54416 6.22335 9.85584 5.249C10.1743 4.25863 10.8917 3.67608 11.9198 3.52463C13.3645 3.31167 14.7312 4.50984 14.7178 5.94629C14.7162 6.1024 14.6744 6.22852 14.5317 6.29933C14.4423 6.34379 14.434 6.41253 14.4485 6.49265C14.4831 6.68442 14.5384 6.86844 14.6506 7.03126C14.8801 7.36517 14.8537 7.66859 14.5508 7.93996C14.4449 8.03507 14.3828 8.13949 14.3353 8.27078C14.2138 8.60521 13.9853 8.84402 13.6338 8.93292C13.4643 8.97582 13.4715 9.03733 13.5625 9.15105C13.6711 9.287 13.7744 9.42707 13.8794 9.56612C14.1766 9.96051 14.5767 10.0716 15.0455 9.98842C15.4962 9.90882 15.9077 9.97654 16.2431 10.3115C16.3439 10.4118 16.3589 10.3368 16.3982 10.2644C16.6871 9.73101 17.1229 9.4188 17.7401 9.39451C18.0032 9.38417 18.1195 9.50306 18.1205 9.76668C18.1226 10.5467 18.1221 11.3272 18.121 12.1072C18.121 12.4158 18.0063 12.5228 17.6946 12.5119C17.6496 12.5104 17.6046 12.5062 17.5597 12.5005C17.4723 12.4897 17.3555 12.4116 17.3069 12.4695C17.2433 12.545 17.3421 12.6448 17.3782 12.7295C17.662 13.3999 17.9541 14.0678 18.2332 14.7403C18.2978 14.8958 18.3748 14.9667 18.5568 14.9692C19.7963 14.9873 20.8678 16.1012 20.9133 17.3428C20.9608 18.633 20.0134 19.7128 18.8514 19.9113C17.54 20.1351 16.2809 19.3086 15.9878 17.9931C15.947 17.8106 15.871 17.7729 15.7035 17.7734C14.311 17.7786 12.9179 17.7786 11.5254 17.7734C11.3652 17.7729 11.2928 17.8106 11.253 17.9838C10.9858 19.1421 9.97215 19.9439 8.80551 19.9366C7.64094 19.9294 6.63971 19.1142 6.3823 17.9523C6.3518 17.8153 6.29546 17.7708 6.16314 17.7744C5.91813 17.7812 5.67312 17.7801 5.42811 17.7744C5.2198 17.7693 5.10091 17.655 5.09626 17.4509C5.07352 16.5018 5.30302 15.6123 5.74135 14.7749C5.80906 14.6451 5.90624 14.5309 6.01634 14.3717V14.3707ZM8.65664 17.1293C9.54571 17.1293 10.4348 17.1293 11.3238 17.1293C11.5518 17.1293 11.5523 17.1283 11.4546 16.935C11.3362 16.7008 11.2778 16.4543 11.283 16.1901C11.2892 15.894 11.2882 15.5973 11.283 15.3011C11.2737 14.7428 10.917 14.3769 10.3614 14.3727C9.42734 14.366 8.49279 14.3624 7.55876 14.3743C7.03411 14.381 6.6025 14.6028 6.3394 15.0664C6.01117 15.6443 5.82819 16.2723 5.76771 16.936C5.75324 17.0916 5.79562 17.1335 5.95069 17.1325C6.85268 17.1257 7.75466 17.1293 8.65664 17.1293ZM10.1215 12.177C10.489 12.177 10.8566 12.1733 11.2236 12.179C11.3455 12.1811 11.4112 12.1434 11.4453 12.0203C11.5373 11.6875 11.6955 11.3851 11.9157 11.1184C11.9808 11.0393 11.9844 10.9803 11.9193 10.8997C11.7978 10.7498 11.6826 10.5937 11.5999 10.4169C11.5342 10.2763 11.5668 10.1487 11.681 10.0505C11.8014 9.94604 11.9389 9.94397 12.0764 10.021C12.1529 10.0639 12.1896 10.1419 12.2336 10.2128C12.6057 10.8103 13.1237 11.2223 13.7956 11.4388C13.9218 11.4797 14.0003 11.489 14.0014 11.3122C14.0024 11.1049 14.0541 10.9023 14.1538 10.7183C14.2076 10.619 14.189 10.5741 14.0846 10.5332C13.7625 10.4076 13.5181 10.1797 13.3097 9.91192C13.1356 9.68811 12.9665 9.46016 12.8037 9.22859C12.1224 8.26147 10.6281 8.26044 9.8791 9.16553C9.20197 9.98377 8.95955 10.9638 8.83601 11.9873C8.81895 12.1284 8.87426 12.1821 9.02054 12.1785C9.38754 12.1708 9.75505 12.1759 10.1226 12.1759L10.1215 12.177ZM15.8963 17.1371C15.8963 17.1371 15.8963 17.1325 15.8963 17.1299C15.9738 17.1299 16.0524 17.1211 16.1279 17.1314C16.317 17.1583 16.4313 17.0808 16.5388 16.9231C16.8862 16.4119 17.248 15.9105 17.6134 15.4117C17.7013 15.2913 17.7075 15.1931 17.6491 15.0592C17.2133 14.0554 16.7823 13.0495 16.3558 12.0415C16.2979 11.9046 16.2349 11.8937 16.1072 11.948C15.7676 12.0922 15.413 12.1842 15.0424 12.2018C14.8134 12.2126 14.8087 12.2152 14.8604 12.4359C15.1132 13.5199 15.3629 14.6048 15.6208 15.6877C15.7025 16.0304 15.6849 16.3612 15.58 16.6957C15.5345 16.8404 15.3515 17.0089 15.4342 17.0983C15.5117 17.1821 15.7366 17.1299 15.8963 17.1376V17.1371ZM13.4565 5.67699C13.592 5.67699 13.7274 5.67079 13.8623 5.67854C13.9962 5.68629 14.0339 5.64132 13.9957 5.51003C13.7512 4.66594 13.0301 4.14232 12.1974 4.16817C11.0054 4.20539 10.2482 5.28001 10.4162 6.30915C10.5247 6.97233 11.0804 7.60605 11.728 7.76887C11.8702 7.80454 11.911 7.7668 11.9059 7.62517C11.8976 7.39981 11.9028 7.17392 11.9043 6.94856C11.9074 6.48645 12.1147 6.13651 12.4915 5.87755C12.7861 5.67544 13.1175 5.65993 13.4565 5.67699ZM10.4131 12.8236C9.89823 12.8236 9.47334 12.8314 9.04845 12.82C8.87426 12.8153 8.82153 12.8758 8.83239 13.0428C8.84324 13.2092 8.85151 13.3813 8.82102 13.5436C8.79 13.708 8.84893 13.7287 8.98694 13.7277C9.48937 13.7225 9.99179 13.7215 10.4937 13.7277C11.2561 13.7359 11.9183 14.4027 11.9296 15.1667C11.9322 15.3533 11.9358 15.5404 11.9291 15.727C11.9245 15.8542 11.9762 15.8971 12.0997 15.895C12.3892 15.8893 12.6791 15.8898 12.9691 15.895C13.089 15.8971 13.1449 15.8614 13.1433 15.7311C13.1381 15.2675 13.1547 14.8033 13.1371 14.3402C13.104 13.463 12.6476 12.9694 11.789 12.8541C11.3016 12.789 10.8116 12.8469 10.4125 12.8252L10.4131 12.8236ZM13.7879 14.8297C13.7879 15.1781 13.7915 15.468 13.7858 15.758C13.7837 15.8697 13.8168 15.9327 13.9285 15.9741C14.2882 16.1064 14.5317 16.3571 14.6547 16.7231C14.6681 16.7624 14.6604 16.8275 14.7173 16.8316C14.7731 16.8352 14.8041 16.7804 14.831 16.7381C14.9866 16.4936 15.047 16.2248 14.9835 15.9431C14.7121 14.7444 14.4314 13.5478 14.159 12.3491C14.1316 12.2281 14.0717 12.1811 13.9548 12.1589C13.5594 12.0834 13.1929 11.932 12.8404 11.7366C12.7091 11.6637 12.6026 11.4569 12.4434 11.5401C12.3132 11.6084 12.2522 11.7914 12.185 11.9387C12.1715 11.9681 12.1591 11.9976 12.1441 12.026C12.0749 12.1589 12.1018 12.2204 12.2604 12.2654C13.0678 12.4959 13.5713 13.0262 13.7543 13.8486C13.8308 14.1918 13.7672 14.5423 13.7874 14.8302L13.7879 14.8297ZM17.7814 16.3064C17.7897 16.3178 17.7985 16.3297 17.8067 16.3411C17.8708 16.3163 17.9339 16.2863 17.9995 16.2666C18.4885 16.1193 18.931 16.1932 19.3021 16.5602C19.6738 16.9272 19.7611 17.3738 19.6055 17.8592C19.451 18.3415 19.0023 18.6764 18.5289 18.7017C17.9753 18.7317 17.5106 18.4769 17.2909 17.9864C17.2128 17.8127 17.1157 17.7507 16.9409 17.7744C16.9032 17.7796 16.8639 17.775 16.8252 17.7755C16.6106 17.777 16.6024 17.7874 16.6665 17.9946C16.9203 18.817 17.7302 19.3665 18.6178 19.2714C19.528 19.1742 20.2832 18.4123 20.2491 17.409C20.2119 16.3199 19.391 15.6402 18.3976 15.6092C18.3298 15.6071 18.2704 15.6179 18.228 15.6784C18.0802 15.8883 17.9308 16.0966 17.7819 16.3054L17.7814 16.3064ZM7.34735 17.776C6.99379 17.776 6.98914 17.7822 7.09768 18.0789C7.43729 19.0078 8.45092 19.5055 9.3896 19.1938C9.99386 18.9928 10.3872 18.5741 10.5785 17.9688C10.5966 17.9124 10.6586 17.8065 10.5588 17.7894C10.4089 17.7636 10.2502 17.7713 10.0972 17.7858C9.98662 17.7961 9.99127 17.9192 9.95095 17.9946C9.71163 18.4438 9.33533 18.6904 8.83136 18.695C8.32686 18.6997 7.93196 18.465 7.70866 18.0086C7.61665 17.8199 7.51792 17.7331 7.34683 17.7765L7.34735 17.776ZM12.5504 7.47321H12.5499C12.5499 7.64688 12.5499 7.82056 12.5499 7.99424C12.5499 8.06867 12.5577 8.13483 12.6435 8.16378C12.8321 8.22736 13.0182 8.30179 13.2203 8.31058C13.5392 8.32402 13.6923 8.21392 13.745 7.90068C13.7729 7.73476 13.8344 7.61018 13.9827 7.52955C14.0763 7.47837 14.1042 7.41531 14.0401 7.3109C13.8809 7.04883 13.7894 6.76196 13.7641 6.45595C13.7569 6.3717 13.7284 6.32311 13.6369 6.32466C13.4762 6.32725 13.3139 6.31432 13.1552 6.3319C12.7897 6.37222 12.5685 6.61826 12.552 6.99146C12.5447 7.15221 12.5509 7.31297 12.5509 7.47372L12.5504 7.47321ZM12.8218 16.5385V16.5375C12.6031 16.5375 12.3845 16.5416 12.1659 16.536C12.0216 16.5323 12.0118 16.5861 12.0795 16.6941C12.201 16.888 12.3695 17.0317 12.5907 17.0787C13.0348 17.1733 13.4855 17.1325 13.9347 17.1102C14.0556 17.104 14.0618 17.0348 14.0344 16.9376C13.9714 16.7138 13.7522 16.5489 13.4772 16.5401C13.2591 16.5329 13.0399 16.5385 12.8213 16.5385H12.8218ZM14.663 11.3535C14.6692 11.4388 14.6408 11.5665 14.8041 11.5557C15.1835 11.5303 15.5562 11.4714 15.904 11.3055C15.9501 11.2832 15.9935 11.2626 15.9904 11.1949C15.9738 10.8599 15.6301 10.5761 15.292 10.6227C14.938 10.6712 14.6749 10.9721 14.663 11.3541V11.3535ZM17.4749 10.9462C17.4749 10.7147 17.4728 10.4826 17.4759 10.251C17.4775 10.1332 17.4341 10.1145 17.3374 10.1724C17.0469 10.3461 16.8965 10.6123 16.8918 10.939C16.8872 11.2734 17.0355 11.5474 17.3307 11.7288C17.4413 11.797 17.478 11.7629 17.4759 11.642C17.4723 11.4104 17.4749 11.1783 17.4749 10.9468V10.9462ZM17.9427 17.775C18.1407 18.0375 18.3877 18.1078 18.6467 18.0029C18.8731 17.9109 19.0359 17.6576 19.0194 17.4235C18.9992 17.1412 18.8023 16.9231 18.5164 16.8668C18.2875 16.8218 18.0729 16.92 17.9768 17.1138C17.982 17.1169 17.9871 17.1231 17.9923 17.1231C18.1267 17.1262 18.2616 17.1262 18.396 17.1314C18.6048 17.1387 18.7335 17.2575 18.7382 17.4436C18.7434 17.639 18.6116 17.7682 18.3955 17.775C18.2559 17.7791 18.1159 17.776 17.9427 17.776V17.775ZM6.1895 10.6563C5.6757 10.6697 5.74703 10.5539 5.7398 11.0977C5.73825 11.2021 5.7765 11.2507 5.88505 11.2486C6.08974 11.245 6.29494 11.246 6.50015 11.2486C6.59474 11.2497 6.63455 11.2135 6.64333 11.1142C6.68417 10.6568 6.68623 10.6563 6.22826 10.6563C6.21534 10.6563 6.20242 10.6563 6.19001 10.6563H6.1895ZM9.28467 17.791H8.36253C8.60237 18.1171 9.03036 18.1187 9.28467 17.791Z" fill="#CCCCCC"/>
</svg>
