<svg width="45" height="45" viewBox="0 0 45 45" fill="none" xmlns="http://www.w3.org/2000/svg">
<path d="M22.58 44.58C10.39 44.58 0.5 34.7 0.5 22.5C0.5 10.31 10.39 0.420044 22.58 0.420044C34.78 0.420044 44.66 10.31 44.66 22.5C44.66 34.7 34.78 44.58 22.58 44.58Z" fill="#FBAA29"/>
<path d="M19.22 35.85H24.59V22.39H28.34L28.74 17.88H24.59C24.59 17.88 24.59 16.2 24.59 15.31C24.59 14.25 24.8 13.83 25.83 13.83C26.66 13.83 28.74 13.83 28.74 13.83V9.15002C28.74 9.15002 25.67 9.15002 25.02 9.15002C21.02 9.15002 19.22 10.91 19.22 14.28C19.22 17.22 19.22 17.87 19.22 17.87H16.42V22.43H19.22V35.85Z" fill="white"/>
</svg>
