<svg width="43" height="43" viewBox="0 0 43 43" fill="none" xmlns="http://www.w3.org/2000/svg">
<path d="M21.85 42.5301C10.23 42.5301 0.820007 33.1101 0.820007 21.5001C0.820007 9.88009 10.24 0.470093 21.85 0.470093C33.47 0.470093 42.88 9.89009 42.88 21.5001C42.88 33.1201 33.47 42.5301 21.85 42.5301Z" fill="#FBAA29"/>
<path d="M21.85 12.0501C24.93 12.0501 25.29 12.0601 26.51 12.1201C27.63 12.1701 28.25 12.3601 28.65 12.5201C29.19 12.7301 29.57 12.9801 29.98 13.3801C30.38 13.7801 30.63 14.1701 30.84 14.7101C31 15.1201 31.19 15.7301 31.24 16.8501C31.3 18.0701 31.31 18.4301 31.31 21.5101C31.31 24.5901 31.3 24.9501 31.24 26.1701C31.19 27.2901 31 27.9101 30.84 28.3101C30.63 28.8501 30.38 29.2301 29.98 29.6401C29.58 30.0401 29.19 30.2901 28.65 30.5001C28.24 30.6601 27.63 30.8501 26.51 30.9001C25.29 30.9601 24.93 30.9701 21.85 30.9701C18.77 30.9701 18.41 30.9601 17.19 30.9001C16.07 30.8501 15.45 30.6601 15.05 30.5001C14.51 30.2901 14.13 30.0401 13.72 29.6401C13.32 29.2401 13.07 28.8501 12.86 28.3101C12.7 27.9001 12.51 27.2901 12.46 26.1701C12.4 24.9501 12.39 24.5901 12.39 21.5101C12.39 18.4301 12.4 18.0701 12.46 16.8501C12.51 15.7301 12.7 15.1201 12.86 14.7101C13.07 14.1701 13.32 13.7901 13.72 13.3801C14.12 12.9801 14.51 12.7301 15.05 12.5201C15.46 12.3601 16.07 12.1701 17.19 12.1201C18.41 12.0601 18.77 12.0501 21.85 12.0501ZM21.85 9.97009C18.72 9.97009 18.33 9.98009 17.1 10.0401C15.87 10.1001 15.03 10.2901 14.3 10.5801C13.54 10.8701 12.9 11.2701 12.26 11.9101C11.62 12.5501 11.22 13.1901 10.93 13.9501C10.64 14.6801 10.45 15.5201 10.39 16.7501C10.33 17.9801 10.32 18.3701 10.32 21.5001C10.32 24.6301 10.33 25.0201 10.39 26.2501C10.45 27.4801 10.64 28.3201 10.93 29.0501C11.22 29.8101 11.62 30.4501 12.26 31.0901C12.9 31.7301 13.54 32.1301 14.3 32.4201C15.03 32.7001 15.87 32.9001 17.1 32.9601C18.33 33.0201 18.72 33.0301 21.85 33.0301C24.98 33.0301 25.37 33.0201 26.6 32.9601C27.83 32.9001 28.67 32.7101 29.4 32.4201C30.16 32.1301 30.8 31.7301 31.44 31.0901C32.08 30.4501 32.48 29.8101 32.77 29.0501C33.05 28.3201 33.25 27.4801 33.31 26.2501C33.37 25.0201 33.38 24.6301 33.38 21.5001C33.38 18.3701 33.37 17.9801 33.31 16.7501C33.25 15.5201 33.06 14.6801 32.77 13.9501C32.48 13.1901 32.08 12.5501 31.44 11.9101C30.8 11.2701 30.16 10.8701 29.4 10.5801C28.67 10.3001 27.83 10.1001 26.6 10.0401C25.37 9.98009 24.98 9.97009 21.85 9.97009Z" fill="white"/>
<path d="M21.85 15.5801C18.58 15.5801 15.93 18.2301 15.93 21.5001C15.93 24.7701 18.58 27.4201 21.85 27.4201C25.12 27.4201 27.77 24.7701 27.77 21.5001C27.77 18.2301 25.12 15.5801 21.85 15.5801ZM21.85 25.3401C19.73 25.3401 18.01 23.6201 18.01 21.5001C18.01 19.3801 19.73 17.6601 21.85 17.6601C23.97 17.6601 25.69 19.3801 25.69 21.5001C25.69 23.6201 23.97 25.3401 21.85 25.3401Z" fill="white"/>
<path d="M29.39 15.3501C29.39 16.1101 28.77 16.7301 28.01 16.7301C27.25 16.7301 26.63 16.1101 26.63 15.3501C26.63 14.5901 27.25 13.9701 28.01 13.9701C28.77 13.9601 29.39 14.5801 29.39 15.3501Z" fill="white"/>
</svg>
