<svg width="16" height="17" viewBox="0 0 16 17" fill="none" xmlns="http://www.w3.org/2000/svg">
<path d="M8.00002 8.58012C7.26669 8.58012 6.66669 7.98012 6.66669 7.24679C6.66669 6.51345 7.26669 5.91345 8.00002 5.91345C8.73335 5.91345 9.33335 6.51345 9.33335 7.24679C9.33335 7.98012 8.73335 8.58012 8.00002 8.58012ZM12 7.38012C12 4.96012 10.2334 3.24679 8.00002 3.24679C5.76669 3.24679 4.00002 4.96012 4.00002 7.38012C4.00002 8.94012 5.30002 11.0068 8.00002 13.4735C10.7 11.0068 12 8.94012 12 7.38012ZM8.00002 1.91345C10.8 1.91345 13.3334 4.06012 13.3334 7.38012C13.3334 9.59345 11.5534 12.2135 8.00002 15.2468C4.44669 12.2135 2.66669 9.59345 2.66669 7.38012C2.66669 4.06012 5.20002 1.91345 8.00002 1.91345Z" fill="#999999"/>
</svg>
