<svg width="45" height="45" viewBox="0 0 45 45" fill="none" xmlns="http://www.w3.org/2000/svg">
<path d="M22.74 44.58C10.55 44.58 0.660034 34.69 0.660034 22.5C0.660034 10.31 10.54 0.420044 22.74 0.420044C34.93 0.420044 44.82 10.31 44.82 22.5C44.82 34.7 34.93 44.58 22.74 44.58Z" fill="#FBAA29"/>
<path d="M10.53 31.66C12.91 33.19 15.74 34.08 18.77 34.08C28.76 34.08 34.4 25.65 34.06 18.08C35.11 17.32 36.02 16.38 36.74 15.3C35.77 15.73 34.74 16.02 33.65 16.15C34.76 15.49 35.61 14.43 36.01 13.17C34.97 13.79 33.82 14.23 32.6 14.48C31.62 13.43 30.22 12.78 28.67 12.78C25.2 12.78 22.65 16.02 23.43 19.38C18.96 19.16 15 17.01 12.34 13.76C10.93 16.18 11.61 19.34 14 20.94C13.12 20.91 12.29 20.67 11.56 20.27C11.5 22.76 13.29 25.09 15.87 25.61C15.11 25.82 14.28 25.86 13.44 25.7C14.12 27.84 16.11 29.39 18.46 29.44C16.23 31.2 13.39 32 10.53 31.66Z" fill="white"/>
</svg>
