<svg width="40" height="40" viewBox="0 0 40 40" fill="none" xmlns="http://www.w3.org/2000/svg">
<path d="M39.9853 4.32053C39.9934 1.95257 38.2885 0.0255795 36.1773 0.0164883C34.0661 0.00739707 32.3481 1.91964 32.34 4.28761C32.3319 6.65558 34.0368 8.58257 36.1479 8.59166C38.2591 8.60075 39.9772 6.6885 39.9853 4.32053Z" fill="#FBAA29"/>
<path d="M22.4072 37.2755L14.4115 15.0818C13.6083 12.8513 14.569 10.3132 16.5573 9.4124C18.5461 8.5116 20.8093 9.58897 21.6125 11.8188L29.6082 34.0125C30.4114 36.2429 29.4507 38.7811 27.4624 39.6819C25.4736 40.5827 23.2104 39.5053 22.4072 37.2755Z" fill="#666666"/>
<path d="M7.31947 37.3982L3.2599 26.129C2.51266 24.0544 3.40635 21.6934 5.2562 20.8548C7.10605 20.0168 9.21131 21.0191 9.95905 23.0936L14.0186 34.3629C14.7659 36.4374 13.8722 38.7985 12.0223 39.637C10.1725 40.4751 8.06721 39.4728 7.31947 37.3982Z" fill="#666666"/>
<path d="M22.3531 34.1542L29.5811 11.8832C30.3148 9.62307 32.5431 8.4577 34.5584 9.28002C36.5737 10.1029 37.6128 12.6018 36.8795 14.8619L29.6516 37.133C28.9178 39.3931 26.6896 40.5585 24.6743 39.7362C22.659 38.9133 21.6199 36.4144 22.3531 34.1542Z" fill="#FBAA29"/>
<path d="M7.17797 34.1542L14.4059 11.8832C15.1397 9.62307 17.3679 8.4577 19.3832 9.28002C21.3985 10.1029 22.4376 12.6018 21.7044 14.8619L14.4764 37.133C13.7427 39.3931 11.5144 40.5585 9.49916 39.7362C7.48386 38.9133 6.44473 36.4144 7.17797 34.1542Z" fill="#FBAA29"/>
<path d="M3.61273 20.4075C5.60799 20.4075 7.22547 18.5935 7.22547 16.3558C7.22547 14.1182 5.60799 12.3042 3.61273 12.3042C1.61748 12.3042 0 14.1182 0 16.3558C0 18.5935 1.61748 20.4075 3.61273 20.4075Z" fill="#666666"/>
</svg>
